<?xml version="1.0" encoding="UTF-8" standalone="no"?>
<!-- Created with Inkscape (http://www.inkscape.org/) -->

<svg
   xmlns:dc="http://purl.org/dc/elements/1.1/"
   xmlns:cc="http://creativecommons.org/ns#"
   xmlns:rdf="http://www.w3.org/1999/02/22-rdf-syntax-ns#"
   xmlns:svg="http://www.w3.org/2000/svg"
   xmlns="http://www.w3.org/2000/svg"
   xmlns:sodipodi="http://sodipodi.sourceforge.net/DTD/sodipodi-0.dtd"
   xmlns:inkscape="http://www.inkscape.org/namespaces/inkscape"
   version="1.0"
   x="0.0000000"
   y="0.0000000"
   width="1920"
   height="1080"
   id="svg1"
   sodipodi:docname="logo-plain.svg"
   inkscape:version="0.92.2 5c3e80d, 2017-08-06"
   inkscape:export-filename="/x/src/github.com/majewsky/c3d2-wallpapers/inputs/logo-plain-3840x2160.png"
   inkscape:export-xdpi="192"
   inkscape:export-ydpi="192">
  <metadata
     id="metadata8">
    <rdf:RDF>
      <cc:Work
         rdf:about="">
        <dc:format>image/svg+xml</dc:format>
        <dc:type
           rdf:resource="http://purl.org/dc/dcmitype/StillImage" />
        <dc:title />
      </cc:Work>
    </rdf:RDF>
  </metadata>
  <sodipodi:namedview
     pagecolor="#000000"
     bordercolor="#666666"
     borderopacity="1"
     objecttolerance="10"
     gridtolerance="10"
     guidetolerance="10"
     inkscape:pageopacity="1"
     inkscape:pageshadow="2"
     inkscape:window-width="1920"
     inkscape:window-height="1054"
     id="namedview6"
     showgrid="false"
     inkscape:zoom="0.75520833"
     inkscape:cx="960"
     inkscape:cy="540"
     inkscape:window-x="0"
     inkscape:window-y="26"
     inkscape:window-maximized="1"
     inkscape:current-layer="svg1" />
  <defs
     id="defs3" />
  <path
     d="m 594.375,541.25 75,-118.75 c 0,0 68.75,0 68.75,0 0,0 -68.75,118.75 -68.75,118.75 0,0 68.75,116.25 68.75,116.25 h -75 z m 87.5,0 68.75,-118.75 c 0,0 75,0 75,0 0,0 -68.75,118.75 -68.75,118.75 l 68.75,116.25 h -75 z m 87.5,0 68.75,-118.75 c 0,0 75,0 75,0 0,0 -67.5,118.75 -67.5,118.75 l 67.5,116.25 h -75 z m 243.75,-118.75 c 0,0 68.75,0 68.75,0 l -87.5,235 h -68.75 z m 150,118.75 c 0,0 -68.75,-118.75 -68.75,-118.75 0,0 75,0 75,0 0,0 68.75,118.75 68.75,118.75 l -68.75,116.25 h -75 c 0,0 68.75,-116.25 68.75,-116.25 z m 18.75,116.25 c 0,0 68.75,-116.25 68.75,-116.25 0,0 -68.75,-118.75 -68.75,-118.75 h 75 l 68.75,118.75 -68.75,116.25 c 0,0 -75,0 -75,0 z"
     id="path1103"
     inkscape:connector-curvature="0"
     style="fill:#ffffff;fill-opacity:1" />
</svg>
